<svg width="16" height="21" viewBox="0 0 16 21" fill="none" xmlns="http://www.w3.org/2000/svg">
<path d="M1 21C0.447715 21 -1.95703e-08 20.5523 -4.37114e-08 20L-4.80825e-07 10C-5.04966e-07 9.44771 0.447715 9 0.999999 9C1.55228 9 2 9.44772 2 10L2 20C2 20.5523 1.55228 21 1 21Z" fill="#E5E6E8"/>
<path d="M8 20.8895C7.44772 20.8895 7 20.4418 7 19.8895L7 6.88953C7 6.33724 7.44771 5.88953 8 5.88953C8.55228 5.88953 9 6.33724 9 6.88953L9 19.8895C9 20.4418 8.55228 20.8895 8 20.8895Z" fill="#E5E6E8"/>
<path d="M15 20.8895C14.4477 20.8895 14 20.4418 14 19.8895L14 1.88953C14 1.33724 14.4477 0.889526 15 0.889526C15.5523 0.889526 16 1.33724 16 1.88953L16 19.8895C16 20.4418 15.5523 20.8895 15 20.8895Z" fill="#E5E6E8"/>
</svg>
