<svg width="24" height="20" viewBox="0 0 24 20" fill="none" xmlns="http://www.w3.org/2000/svg">
<path d="M21.4587 1.95979C18.921 -0.652909 14.7927 -0.652909 12.2557 1.95979L11.6665 2.56628L11.0775 1.95979C8.54053 -0.653262 4.4119 -0.653262 1.8749 1.95979C-0.610587 4.51944 -0.626726 8.57675 1.83747 11.3977C4.08499 13.9698 10.7135 19.5265 10.9948 19.7617C11.1857 19.9215 11.4154 19.9993 11.6438 19.9993C11.6513 19.9993 11.6589 19.9993 11.6661 19.999C11.9024 20.0103 12.1403 19.9268 12.3374 19.7617C12.6187 19.5265 19.2479 13.9698 21.4961 11.3974C23.96 8.57675 23.9438 4.51944 21.4587 1.95979ZM19.9646 9.97823C18.2122 11.983 13.3954 16.1178 11.6661 17.585C9.93678 16.1181 5.12101 11.9837 3.36901 9.97858C1.64998 8.01093 1.63384 5.20868 3.33158 3.46028C4.19865 2.56769 5.33735 2.12105 6.47605 2.12105C7.61474 2.12105 8.75344 2.56734 9.62051 3.46028L10.9158 4.79421C11.07 4.953 11.2643 5.04777 11.4683 5.08102C11.7993 5.15422 12.1585 5.05909 12.4161 4.79457L13.7121 3.46028C15.4465 1.67475 18.2679 1.67511 20.0013 3.46028C21.6991 5.20868 21.6829 8.01093 19.9646 9.97823Z" fill="#E5E6E8"/>
</svg>
