<svg width="18" height="18" viewBox="0 0 18 18" fill="none" xmlns="http://www.w3.org/2000/svg">
<path d="M8.47541 1.06294C8.54021 0.931628 8.57262 0.865973 8.60122 0.828156C8.80128 0.563649 9.19872 0.563649 9.39878 0.828156C9.42738 0.865973 9.45979 0.931628 9.52459 1.06294L11.8028 5.67912C11.8221 5.71814 11.8317 5.73765 11.8423 5.7553C11.9122 5.87167 12.0264 5.95464 12.1586 5.98513C12.1787 5.98976 12.2002 5.99288 12.2433 5.99914L17.3375 6.73938C17.4825 6.76044 17.5549 6.77096 17.5997 6.78648C17.9131 6.89501 18.0359 7.273 17.8462 7.54501C17.819 7.5839 17.7666 7.635 17.6618 7.73721L13.9755 11.3304C13.9444 11.3608 13.9288 11.376 13.9153 11.3915C13.8262 11.4939 13.7826 11.6282 13.7944 11.7634C13.7962 11.7839 13.7999 11.8053 13.8073 11.8482L14.6775 16.9219C14.7022 17.0662 14.7146 17.1384 14.7137 17.1858C14.7073 17.5174 14.3858 17.751 14.0685 17.6546C14.0231 17.6408 13.9583 17.6067 13.8287 17.5386L9.27222 15.1431C9.23371 15.1229 9.21445 15.1127 9.19551 15.1047C9.07057 15.0516 8.92943 15.0516 8.80449 15.1047C8.78555 15.1127 8.76629 15.1229 8.72778 15.1431L4.17133 17.5386C4.04172 17.6067 3.97691 17.6408 3.93155 17.6546C3.61422 17.751 3.29269 17.5174 3.28631 17.1858C3.28539 17.1384 3.29777 17.0662 3.32252 16.9219L4.19273 11.8482C4.20008 11.8053 4.20376 11.7839 4.20556 11.7634C4.21743 11.6282 4.17382 11.4939 4.08473 11.3915C4.07122 11.376 4.05564 11.3608 4.02448 11.3304L0.338241 7.73721C0.233384 7.635 0.180956 7.5839 0.153829 7.54501C-0.0359105 7.273 0.0869045 6.89501 0.400289 6.78648C0.445094 6.77096 0.517548 6.76044 0.662455 6.73938L5.75672 5.99914C5.79978 5.99288 5.82131 5.98976 5.84137 5.98513C5.97364 5.95464 6.08783 5.87167 6.1577 5.7553C6.1683 5.73765 6.17793 5.71814 6.19719 5.67912L8.47541 1.06294Z" fill="#FFC800"/>
</svg>
