<svg width="73" height="145" viewBox="0 0 73 145" fill="none" xmlns="http://www.w3.org/2000/svg">
<path d="M69.8274 8.69862C70.2132 7.96553 69.9317 7.05846 69.1986 6.67262L57.2522 0.385043C56.5191 -0.000794411 55.6121 0.280709 55.2262 1.0138C54.8404 1.74689 55.1219 2.65396 55.855 3.0398L66.474 8.62876L60.8851 19.2478C60.4992 19.9809 60.7807 20.8879 61.5138 21.2738C62.2469 21.6596 63.154 21.3781 63.5398 20.645L69.8274 8.69862ZM43.5 56L44.9435 55.5921L43.5 56ZM59 67.5L58.1791 68.7555L59 67.5ZM55 134L54.0076 132.875L55 134ZM3.16587 133.056C2.64462 132.412 1.70009 132.313 1.0562 132.834C0.412312 133.355 0.312888 134.3 0.834133 134.944L3.16587 133.056ZM68.0554 6.5674C60.5758 8.88865 51.9637 13.8173 46.2663 21.9789C40.5271 30.2002 37.8567 41.547 42.0565 56.4079L44.9435 55.5921C40.9665 41.5197 43.5461 31.1165 48.7262 23.6961C53.9479 16.216 61.9242 11.6113 68.9446 9.4326L68.0554 6.5674ZM42.0565 56.4079C45.2696 67.7772 45.8282 77.6031 43.9884 84.4877C43.0724 87.9152 41.5848 90.5331 39.6187 92.2869C37.6745 94.0211 35.1639 95 32 95V98C35.8361 98 39.0755 96.7914 41.6157 94.5256C44.134 92.2794 45.8651 89.0848 46.8866 85.2623C48.9218 77.6469 48.2304 67.2228 44.9435 55.5921L42.0565 56.4079ZM32 95C28.3992 95 25.9364 93.9421 24.3242 92.4061C22.6999 90.8587 21.7887 88.6826 21.5712 86.1825C21.1306 81.1179 23.5799 75.1112 27.9295 71.6773L26.0705 69.3227C20.9201 73.3888 18.0552 80.3821 18.5825 86.4425C18.8489 89.5049 19.9922 92.4226 22.2549 94.5782C24.5297 96.7454 27.7866 98 32 98V95ZM27.9295 71.6773C32.5617 68.0203 37.3574 65.4952 42.3357 64.7658C47.2706 64.0427 52.5302 65.0619 58.1791 68.7555L59.8209 66.2445C53.6184 62.1891 47.6281 60.9583 41.9008 61.7975C36.2169 62.6303 30.9383 65.4797 26.0705 69.3227L27.9295 71.6773ZM58.1791 68.7555C61.1161 70.6758 63.9278 74.2215 66.0809 78.9357C68.2242 83.6285 69.6659 89.376 69.939 95.5661C70.4845 107.931 66.3697 121.968 54.0076 132.875L55.9924 135.125C69.1303 123.532 73.5155 108.569 72.936 95.4339C72.6466 88.874 71.1195 82.7465 68.8097 77.6893C66.5097 72.6535 63.3839 68.5742 59.8209 66.2445L58.1791 68.7555ZM54.0076 132.875C47.256 138.833 36.563 141.421 26.3694 141.164C21.2993 141.036 16.4351 140.204 12.3509 138.785C8.24389 137.358 5.04914 135.383 3.16587 133.056L0.834133 134.944C3.20086 137.867 6.97079 140.092 11.3665 141.619C15.7851 143.154 20.9616 144.028 26.2937 144.163C36.9044 144.431 48.4615 141.77 55.9924 135.125L54.0076 132.875Z" fill="#9D9DA3"/>
</svg>
